<svg width="32" height="32" viewBox="0 0 32 32" fill="none" xmlns="http://www.w3.org/2000/svg">
  <g opacity="0.5">
    <path d="M23.6094 28.3907C23.8522 28.6421 23.9866 28.9789 23.9836 29.3285C23.9806 29.6781 23.8403 30.0125 23.5931 30.2597C23.3459 30.507 23.0115 30.6472 22.6619 30.6502C22.3123 30.6533 21.9755 30.5189 21.724 30.276L8.39069 16.9427C8.14073 16.6926 8.00031 16.3535 8.00031 16C8.00031 15.6464 8.14073 15.3074 8.39069 15.0573L21.724 1.72399C21.9755 1.48111 22.3123 1.34672 22.6619 1.34975C23.0115 1.35279 23.3459 1.49302 23.5931 1.74023C23.8403 1.98744 23.9806 2.32186 23.9836 2.67145C23.9866 3.02105 23.8522 3.35785 23.6094 3.60932L11.2187 16L23.6094 28.3907Z" fill="#E40321"/>
  </g>
</svg>
