<svg width="1025" height="160" viewBox="0 0 1025 160" fill="none" xmlns="http://www.w3.org/2000/svg">
  <path d="M170.16 113.227C157.547 113.227 146.773 123.693 146.773 136.92C146.773 149.84 157.547 160 170.16 160C183.08 160 193.547 149.84 193.547 136.92C193.533 123.693 183.08 113.227 170.16 113.227Z" fill="white"/>
  <path d="M226.16 3.06641C155.387 3.06641 146.16 40.9064 146.16 61.2264C146.16 81.5331 155.387 118.76 226.16 118.76H237.854V156.92H279.387V3.06641H226.16ZM218.467 86.453C196.934 86.453 187.694 73.8397 187.694 60.9197C187.694 48.3064 196.92 35.3864 218.467 35.3864H237.854V86.4664H218.467V86.453Z" fill="white"/>
  <path d="M820 41.2264H808.307V3.06641H766.773V156.906H820C890.773 156.906 900 119.066 900 98.7464C900 78.453 890.773 41.2264 820 41.2264ZM827.693 124.613H808.307V73.533H827.693C849.227 73.533 858.467 86.1464 858.467 99.0664C858.467 111.693 849.227 124.613 827.693 124.613Z" fill="white"/>
  <path d="M53.2267 3.06641H0V156.906H41.5333V118.746H53.2267C124 118.746 133.227 81.5197 133.227 61.2131C133.227 40.9197 124 3.06641 53.2267 3.06641ZM60.92 86.453H41.5333V35.373H60.92C82.4534 35.373 91.6934 48.293 91.6934 60.9064C91.6934 73.8397 82.4667 86.453 60.92 86.453Z" fill="white"/>
  <path d="M646.454 3.06641H604.92V156.906H646.454V3.06641Z" fill="white"/>
  <path d="M515.693 0C466.16 0 449.853 27.3867 449.853 48.3067H491.693C491.693 38.1467 502.467 31.6934 515.693 31.6934C531.693 31.6934 540.307 38.16 540.307 52.6133V62.7734H508.307C461.227 62.7734 441.227 87.08 441.227 112C441.227 136.92 462.76 160 495.693 160C520.307 160 535.387 147.693 540.307 138.467V156.933H581.227V56.9333C581.227 27.3734 566.467 0 515.693 0ZM540.307 102.76C540.307 115.373 526.467 127.987 505.227 127.987C493.227 127.987 483.067 120.6 483.067 110.147C483.067 99.6934 491.987 91.9867 508.6 91.9867H540.293V102.76H540.307Z" fill="white"/>
  <path d="M673.854 56.3066C661.241 56.3066 650.467 66.7733 650.467 80C650.467 92.6133 661.241 103.08 673.854 103.08C686.774 103.08 697.241 92.6133 697.241 80C697.227 66.76 686.774 56.3066 673.854 56.3066Z" fill="white"/>
  <path d="M742.759 3.06641H701.226V156.906H742.759V3.06641Z" fill="white"/>
  <path d="M429.853 44.6133C429.853 27.3867 416.013 0 360.626 0C306.466 0 291.706 27.3867 291.706 48.3067H335.4C335.4 38.1467 345.24 32.3067 362.173 32.3067C378.786 32.3067 388.333 38.1467 388.333 47.6934C388.333 57.5334 379.106 63.3867 360.64 63.6934L336.64 64V96.3067H360.64C379.106 96.3067 388.333 102.467 388.333 112.307C388.333 121.84 378.8 128.307 362.173 128.307C345.253 128.307 335.4 121.84 335.4 111.693H291.706C291.706 132.613 306.48 160 360.626 160C416.013 160 429.853 132.613 429.853 115.387C429.853 97.2267 419.386 82.7734 396.013 80.3067V79.6934C419.386 77.2267 429.853 62.76 429.853 44.6133Z" fill="white"/>
  <path d="M969.221 117.488V84.4414H937.053V64.666H969.221V31.7949H992.775V64.666H1024.94V84.4414H992.775V117.488H969.221Z" fill="white"/>
</svg>
