<svg width="34" height="34" viewBox="0 0 34 34" fill="none" xmlns="http://www.w3.org/2000/svg">
  <path d="M32.2999 16.9999C32.2999 17.3739 31.9939 17.6799 31.6199 17.6799H2.37995C2.00595 17.6799 1.69995 17.3739 1.69995 16.9999C1.69995 16.6259 2.00595 16.3199 2.37995 16.3199H31.6199C31.9939 16.3199 32.2999 16.6259 32.2999 16.9999ZM2.37995 9.51991H31.6199C31.9939 9.51991 32.2999 9.21391 32.2999 8.83991C32.2999 8.46591 31.9939 8.15991 31.6199 8.15991H2.37995C2.00595 8.15991 1.69995 8.46591 1.69995 8.83991C1.69995 9.21391 2.00595 9.51991 2.37995 9.51991ZM31.6199 24.4799H2.37995C2.00595 24.4799 1.69995 24.7859 1.69995 25.1599C1.69995 25.5339 2.00595 25.8399 2.37995 25.8399H31.6199C31.9939 25.8399 32.2999 25.5339 32.2999 25.1599C32.2999 24.7859 31.9939 24.4799 31.6199 24.4799Z" fill="white"/>
</svg>
