<svg width="14" height="14" viewBox="0 0 14 14" fill="none" xmlns="http://www.w3.org/2000/svg">
  <path fill-rule="evenodd" clip-rule="evenodd" d="M9.42988 2.48311L6.89988 5.01111L4.36988 2.48111C4.23658 2.34229 4.07692 2.23148 3.90025 2.15516C3.72358 2.07885 3.53345 2.03857 3.341 2.03669C3.14856 2.03481 2.95768 2.07136 2.77955 2.1442C2.60142 2.21704 2.43962 2.32471 2.30363 2.4609C2.16765 2.59708 2.06022 2.75904 1.98764 2.93728C1.91506 3.11551 1.87879 3.30645 1.88095 3.49889C1.88312 3.69133 1.92367 3.8814 2.00025 4.05796C2.07682 4.23452 2.18787 4.39402 2.32688 4.52711L4.85588 7.05711L2.32888 9.58411C2.06469 9.85707 1.91834 10.2229 1.9214 10.6028C1.92445 10.9827 2.07666 11.3461 2.34521 11.6148C2.61376 11.8835 2.97713 12.0359 3.357 12.0391C3.73686 12.0423 4.10279 11.8962 4.37588 11.6321L6.89988 9.10011L9.42788 11.6291C9.56128 11.7677 9.72095 11.8782 9.89758 11.9543C10.0742 12.0305 10.2642 12.0706 10.4566 12.0724C10.6489 12.0742 10.8396 12.0377 11.0177 11.9649C11.1957 11.8922 11.3574 11.7847 11.4934 11.6487C11.6294 11.5127 11.737 11.3509 11.8097 11.1729C11.8825 10.9949 11.919 10.8041 11.9172 10.6118C11.9154 10.4195 11.8752 10.2294 11.7991 10.0528C11.723 9.87619 11.6124 9.71651 11.4739 9.58311L8.94988 7.05811L11.4769 4.53111C11.7411 4.25814 11.8874 3.89229 11.8844 3.51243C11.8813 3.13256 11.7291 2.76911 11.4605 2.50043C11.192 2.23175 10.8286 2.07936 10.4488 2.07612C10.0689 2.07288 9.70297 2.21905 9.42988 2.48311Z" fill="#373737"/>
</svg>
