<svg width="28" height="28" viewBox="0 0 28 28" fill="none" xmlns="http://www.w3.org/2000/svg">
  <path fill-rule="evenodd" clip-rule="evenodd" d="M1.71453 1.71453C2.05624 1.37283 2.61026 1.37283 2.95197 1.71453L13.9999 12.7624L25.0479 1.71453C25.3896 1.37283 25.9435 1.37283 26.2853 1.71453C26.627 2.05624 26.627 2.61026 26.2853 2.95197L15.2374 13.9999L26.2853 25.0479C26.627 25.3896 26.627 25.9435 26.2853 26.2853C25.9435 26.627 25.3896 26.627 25.0479 26.2853L13.9999 15.2374L2.95197 26.2853C2.61026 26.627 2.05624 26.627 1.71453 26.2853C1.37283 25.9435 1.37283 25.3896 1.71453 25.0479L12.7624 13.9999L1.71453 2.95197C1.37283 2.61026 1.37283 2.05624 1.71453 1.71453Z" fill="white"/>
</svg>
