<svg width="228" height="33" viewBox="0 0 228 33" fill="none" xmlns="http://www.w3.org/2000/svg">
  <path d="M9.60129 3.57329L1.26157e-06 3.57329L0 32.4259H7.49654L7.49654 25.2701H9.60779C22.3792 25.2701 24.0422 18.2899 24.0422 14.4825C24.0422 10.6751 22.3727 3.57329 9.60129 3.57329ZM10.9915 19.2147H7.49654L7.49654 9.63544H10.9915C14.8762 9.63544 16.5457 12.059 16.5457 14.4217C16.5457 16.8452 14.8762 19.2147 10.9915 19.2147Z" fill="#E40321"/>
  <path d="M134.028 32.4259V3.57329L126.532 3.57329L126.532 32.4259L134.028 32.4259Z" fill="#E40321"/>
  <path d="M147.969 32.4259C160.741 32.4259 162.404 25.3309 162.404 21.5235C162.404 17.7161 160.741 10.7291 147.969 10.7291H145.858V3.57329L138.362 3.57329V32.4259H147.969ZM149.353 16.7912C153.238 16.7912 154.907 19.154 154.907 21.5775C154.907 23.9402 153.244 26.3637 149.353 26.3637H145.858V16.7912H149.353Z" fill="#E40321"/>
  <path d="M121.595 22.041C123.759 22.041 125.538 20.192 125.538 18.0056C125.538 15.6978 123.759 13.8555 121.595 13.8555C119.484 13.8555 117.652 15.7045 117.652 18.0056C117.652 20.192 119.484 22.041 121.595 22.041Z" fill="#E40321"/>
  <path d="M116.652 32.4259V3.57329L109.155 3.57329L109.155 32.4259L116.652 32.4259Z" fill="#E40321"/>
  <path d="M34.5923 28.8479C34.5923 26.4865 32.7604 24.584 30.5387 24.584C28.3755 24.584 26.4852 26.4865 26.4852 28.8479C26.4852 31.1553 28.3755 32.9971 30.5387 32.9971C32.7539 33.0039 34.5923 31.1553 34.5923 28.8479Z" fill="#E40321"/>
  <path d="M93.0569 3.00005C84.1182 3.00005 81.1754 8.13731 81.1754 12.0595L88.724 12.0595C88.724 10.1558 90.6663 8.94064 93.0569 8.94064C95.9412 8.94064 97.5002 10.149 97.5002 12.8628V14.7665H91.7252C83.2282 14.7665 79.6229 19.3232 79.6229 24.0014C79.6229 28.6796 83.5076 33 89.4515 33C93.8949 33 96.6168 30.6913 97.5002 28.9631V32.4262H104.88L104.88 13.6729C104.88 8.13731 102.216 3.00005 93.0569 3.00005ZM97.4938 22.2732C97.4938 24.636 94.9927 27.0055 91.1665 27.0055C89.0033 27.0055 87.1714 25.6216 87.1714 23.6571C87.1714 21.6927 88.7824 20.2548 91.7771 20.2548H97.4938V22.2732Z" fill="#E40321"/>
  <path d="M77.5643 11.3641C77.5643 8.13732 75.0633 3.00005 65.0723 3.00005C55.3021 3.00005 52.6321 8.13732 52.6321 12.0595L60.5185 12.0595C60.5185 10.1558 62.2984 9.06216 65.3516 9.06216C68.3528 9.06216 70.0743 10.1558 70.0743 11.9447C70.0743 13.7944 68.4113 14.888 65.0787 14.942L60.7458 15.0028V21.0581H65.0787C68.4113 21.0581 70.0743 22.2125 70.0743 24.0554C70.0743 25.8444 68.3528 27.0527 65.3516 27.0527C62.2984 27.0527 60.5185 25.8444 60.5185 23.9339H52.6321C52.6321 27.8561 55.2956 32.9933 65.0723 32.9933C75.0633 32.9933 77.5643 27.8561 77.5643 24.6292C77.5643 21.2269 75.674 18.5131 71.458 18.0541V17.9393C75.674 17.4803 77.5643 14.7732 77.5643 11.3641Z" fill="#E40321"/>
  <path d="M40.8092 3.57329C28.0378 3.57329 26.3748 10.6683 26.3748 14.4757C26.3748 18.2831 28.0378 25.2634 40.8092 25.2634H42.9204V32.4192H50.4105V3.57329L40.8092 3.57329ZM39.419 19.2147C35.5343 19.2147 33.8648 16.852 33.8648 14.4285C33.8648 12.0657 35.5278 9.6422 39.419 9.6422H42.9139V19.2215H39.419V19.2147Z" fill="#E40321"/>
  <path d="M176.247 0.57605H180.391C180.637 0.57605 180.898 0.581383 181.175 0.59205C181.463 0.59205 181.746 0.60805 182.023 0.64005C182.301 0.661384 182.562 0.698717 182.807 0.75205C183.053 0.805384 183.255 0.885384 183.415 0.99205C183.789 1.21605 184.103 1.52538 184.359 1.92005C184.626 2.31472 184.759 2.80005 184.759 3.37605C184.759 3.98405 184.61 4.51205 184.311 4.96005C184.023 5.39738 183.607 5.72272 183.063 5.93605V5.96805C183.767 6.11738 184.306 6.43738 184.679 6.92805C185.053 7.41872 185.239 8.01605 185.239 8.72005C185.239 9.13605 185.165 9.54138 185.015 9.93605C184.866 10.3307 184.642 10.6827 184.343 10.9921C184.055 11.2907 183.693 11.536 183.255 11.7281C182.829 11.9094 182.333 12.0001 181.767 12.0001H176.247V0.57605ZM181.575 10.7201C182.247 10.7201 182.77 10.5387 183.143 10.1761C183.527 9.81338 183.719 9.31205 183.719 8.67205C183.719 8.29872 183.65 7.98938 183.511 7.74405C183.373 7.49872 183.186 7.30672 182.951 7.16805C182.727 7.01872 182.466 6.91738 182.167 6.86405C181.869 6.80005 181.559 6.76805 181.239 6.76805H177.767V10.7201H181.575ZM180.807 5.48805C181.671 5.48805 182.29 5.33872 182.663 5.04005C183.047 4.73072 183.239 4.27205 183.239 3.66405C183.239 3.26938 183.175 2.95472 183.047 2.72005C182.919 2.47472 182.743 2.28805 182.519 2.16005C182.295 2.03205 182.034 1.95205 181.735 1.92005C181.447 1.87738 181.138 1.85605 180.807 1.85605H177.767V5.48805H180.807Z" fill="#373737"/>
  <path d="M189.265 12.1761C188.891 12.1761 188.539 12.1334 188.209 12.0481C187.878 11.9734 187.585 11.8454 187.329 11.6641C187.083 11.472 186.886 11.2321 186.737 10.9441C186.598 10.6454 186.529 10.2881 186.529 9.87205C186.529 9.40272 186.609 9.01872 186.769 8.72005C186.929 8.42138 187.137 8.18138 187.393 8.00005C187.659 7.80805 187.958 7.66405 188.289 7.56805C188.63 7.47205 188.977 7.39205 189.329 7.32805C189.702 7.25338 190.054 7.20005 190.385 7.16805C190.726 7.12538 191.025 7.07205 191.281 7.00805C191.537 6.93338 191.739 6.83205 191.889 6.70405C192.038 6.56538 192.113 6.36805 192.113 6.11205C192.113 5.81338 192.054 5.57338 191.937 5.39205C191.83 5.21072 191.686 5.07205 191.505 4.97605C191.334 4.88005 191.137 4.81605 190.913 4.78405C190.699 4.75205 190.486 4.73605 190.273 4.73605C189.697 4.73605 189.217 4.84805 188.833 5.07205C188.449 5.28538 188.241 5.69605 188.209 6.30405H186.849C186.87 5.79205 186.977 5.36005 187.169 5.00805C187.361 4.65605 187.617 4.37338 187.937 4.16005C188.257 3.93605 188.619 3.77605 189.025 3.68005C189.441 3.58405 189.883 3.53605 190.353 3.53605C190.726 3.53605 191.094 3.56272 191.457 3.61605C191.83 3.66938 192.166 3.78138 192.465 3.95205C192.763 4.11205 193.003 4.34138 193.185 4.64005C193.366 4.93872 193.457 5.32805 193.457 5.80805V10.0641C193.457 10.3841 193.473 10.6187 193.505 10.7681C193.547 10.9174 193.675 10.9921 193.889 10.9921C193.985 10.9921 194.123 10.9654 194.305 10.9121V11.9681C194.07 12.1067 193.745 12.1761 193.329 12.1761C192.977 12.1761 192.694 12.0801 192.481 11.8881C192.278 11.6854 192.177 11.3601 192.177 10.9121C191.803 11.3601 191.366 11.6854 190.865 11.8881C190.374 12.0801 189.841 12.1761 189.265 12.1761ZM189.569 10.9921C190.017 10.9921 190.401 10.9334 190.721 10.8161C191.041 10.6881 191.302 10.5334 191.505 10.3521C191.707 10.1601 191.857 9.95738 191.953 9.74405C192.049 9.52005 192.097 9.31205 192.097 9.12005V7.72805C191.926 7.86672 191.702 7.96272 191.425 8.01605C191.147 8.06938 190.854 8.11738 190.545 8.16005C190.246 8.20272 189.942 8.24538 189.633 8.28805C189.323 8.33072 189.046 8.40538 188.801 8.51205C188.555 8.61872 188.353 8.77338 188.193 8.97605C188.043 9.16805 187.969 9.43472 187.969 9.77605C187.969 10.0001 188.011 10.1921 188.097 10.3521C188.193 10.5014 188.31 10.6241 188.449 10.7201C188.598 10.8161 188.769 10.8854 188.961 10.9281C189.153 10.9707 189.355 10.9921 189.569 10.9921Z" fill="#373737"/>
  <path d="M195.57 3.72805H197.522L200.034 10.4321H200.066L202.578 3.72805H204.53V12.0001H203.17V5.44005L200.674 12.0001H199.426L196.93 5.44005V12.0001H195.57V3.72805Z" fill="#373737"/>
  <path d="M179.719 32.1761C178.653 32.1761 177.789 31.9041 177.127 31.3601C176.477 30.816 176.066 29.9734 175.895 28.8321C175.831 28.3841 175.799 27.8827 175.799 27.3281C175.799 26.9334 175.81 26.5227 175.831 26.0961C175.863 25.6694 175.911 25.2481 175.975 24.8321C176.05 24.416 176.146 24.016 176.263 23.632C176.391 23.248 176.557 22.9014 176.759 22.5921C177.122 22.0267 177.565 21.6107 178.087 21.3441C178.61 21.0667 179.266 20.9014 180.055 20.848C180.578 20.8054 181.015 20.7574 181.367 20.7041C181.719 20.6507 181.917 20.5174 181.959 20.3041H183.319C183.298 20.7201 183.207 21.04 183.047 21.264C182.887 21.488 182.663 21.6587 182.375 21.7761C182.087 21.8827 181.735 21.9574 181.319 22C180.903 22.032 180.418 22.0694 179.863 22.112C179.405 22.144 179.005 22.2507 178.663 22.432C178.322 22.6134 178.029 22.8587 177.783 23.168C177.549 23.4667 177.357 23.8241 177.207 24.2401C177.058 24.6454 176.951 25.0934 176.887 25.584H176.935C177.17 25.04 177.533 24.5921 178.023 24.2401C178.525 23.8881 179.127 23.7121 179.831 23.7121C180.994 23.7121 181.911 24.0747 182.583 24.8001C183.255 25.5254 183.591 26.5707 183.591 27.9361C183.591 28.6294 183.495 29.2427 183.303 29.7761C183.122 30.2987 182.861 30.7414 182.519 31.104C182.178 31.456 181.767 31.7227 181.287 31.9041C180.818 32.0854 180.295 32.1761 179.719 32.1761ZM179.735 31.024C180.055 31.024 180.365 30.9601 180.663 30.8321C180.962 30.6934 181.223 30.4961 181.447 30.2401C181.671 29.9841 181.853 29.6694 181.991 29.2961C182.13 28.9121 182.199 28.4694 182.199 27.9681C182.199 26.9974 181.975 26.2347 181.527 25.68C181.079 25.1254 180.471 24.848 179.703 24.848C178.935 24.848 178.322 25.1307 177.863 25.6961C177.415 26.2507 177.191 27.0134 177.191 27.9841C177.191 28.9227 177.415 29.664 177.863 30.208C178.311 30.7521 178.935 31.024 179.735 31.024Z" fill="#373737"/>
  <path d="M185.131 32.0961C184.993 32.0961 184.849 32.08 184.699 32.048C184.55 32.0267 184.427 32.0054 184.331 31.9841V30.784C184.438 30.816 184.534 30.8374 184.619 30.8481C184.715 30.8587 184.806 30.864 184.891 30.864C185.243 30.864 185.51 30.7254 185.691 30.4481C185.883 30.1707 186.022 29.7441 186.107 29.1681C186.203 28.5921 186.262 27.8561 186.283 26.9601C186.305 26.0534 186.326 24.9761 186.347 23.7281H192.155V32H190.795V24.9281H187.659C187.627 25.8987 187.59 26.8214 187.547 27.6961C187.515 28.5601 187.425 29.3174 187.275 29.9681C187.126 30.6187 186.886 31.136 186.555 31.5201C186.225 31.9041 185.75 32.0961 185.131 32.0961Z" fill="#373737"/>
  <path d="M194.211 23.7281H195.571V30.4801L199.475 23.7281H201.219V32H199.859V25.2481L195.955 32H194.211V23.7281Z" fill="#373737"/>
  <path d="M206.313 32.1761C205.215 32.1761 204.356 31.9307 203.737 31.4401C203.119 30.9494 202.783 30.2507 202.729 29.3441H204.105C204.148 29.9521 204.372 30.3894 204.777 30.656C205.183 30.9227 205.689 31.0561 206.297 31.0561C206.948 31.0561 207.449 30.9174 207.801 30.6401C208.153 30.3627 208.329 30.0107 208.329 29.5841C208.329 29.1681 208.196 28.8427 207.929 28.6081C207.663 28.3734 207.209 28.2561 206.569 28.2561H205.465V27.1521H206.345C206.825 27.1521 207.236 27.056 207.577 26.864C207.919 26.6614 208.089 26.3147 208.089 25.8241C208.089 25.5147 207.94 25.2427 207.641 25.0081C207.353 24.7734 206.921 24.656 206.345 24.656C206.1 24.656 205.855 24.6827 205.609 24.736C205.375 24.7894 205.161 24.8747 204.969 24.9921C204.777 25.1094 204.617 25.2641 204.489 25.4561C204.361 25.6481 204.281 25.8827 204.249 26.16H202.873C202.905 25.648 203.028 25.2267 203.241 24.896C203.455 24.5547 203.721 24.288 204.041 24.0961C204.361 23.8934 204.724 23.7494 205.129 23.6641C205.535 23.5787 205.945 23.536 206.361 23.536C206.788 23.536 207.188 23.5787 207.561 23.6641C207.935 23.7494 208.26 23.8881 208.537 24.08C208.825 24.2614 209.049 24.4907 209.209 24.7681C209.38 25.0454 209.465 25.376 209.465 25.76C209.465 26.24 209.327 26.6294 209.049 26.9281C208.783 27.2267 208.479 27.4134 208.137 27.4881V27.5201C208.329 27.552 208.521 27.6161 208.713 27.7121C208.905 27.8081 209.076 27.9414 209.225 28.1121C209.375 28.2721 209.497 28.4747 209.593 28.7201C209.689 28.9547 209.737 29.232 209.737 29.552C209.737 30 209.641 30.3894 209.449 30.7201C209.257 31.0507 209.001 31.3227 208.681 31.5361C208.361 31.7494 207.993 31.9094 207.577 32.0161C207.172 32.1227 206.751 32.1761 206.313 32.1761Z" fill="#373737"/>
  <path d="M211.367 23.7281H212.727V27.68L216.519 23.7281H218.327L214.663 27.312L218.759 32H217.015L213.559 28.0641L212.727 28.8801V32H211.367V23.7281Z" fill="#373737"/>
  <path d="M223.357 32.1761C222.696 32.1761 222.114 32.0694 221.613 31.8561C221.122 31.632 220.706 31.3281 220.365 30.944C220.024 30.5494 219.768 30.0907 219.597 29.5681C219.426 29.0454 219.341 28.4801 219.341 27.8721C219.341 27.2641 219.426 26.6987 219.597 26.1761C219.768 25.6427 220.024 25.1841 220.365 24.8001C220.706 24.4054 221.122 24.0961 221.613 23.8721C222.114 23.6481 222.696 23.536 223.357 23.536C224.008 23.536 224.584 23.6481 225.085 23.8721C225.586 24.0961 226.008 24.4054 226.349 24.8001C226.69 25.1841 226.946 25.6427 227.117 26.1761C227.288 26.6987 227.373 27.2641 227.373 27.8721C227.373 28.4801 227.288 29.0454 227.117 29.5681C226.946 30.0907 226.69 30.5494 226.349 30.944C226.008 31.3281 225.586 31.632 225.085 31.8561C224.584 32.0694 224.008 32.1761 223.357 32.1761ZM223.357 30.9921C223.709 30.9921 224.04 30.9227 224.349 30.784C224.669 30.6454 224.946 30.4481 225.181 30.1921C225.416 29.9254 225.597 29.6001 225.725 29.2161C225.864 28.8214 225.933 28.3734 225.933 27.8721C225.933 27.3707 225.864 26.9281 225.725 26.5441C225.597 26.1494 225.416 25.8187 225.181 25.552C224.946 25.2854 224.669 25.0827 224.349 24.944C224.04 24.8054 223.709 24.736 223.357 24.736C223.005 24.736 222.669 24.8054 222.349 24.944C222.04 25.0827 221.768 25.2854 221.533 25.552C221.298 25.8187 221.112 26.1494 220.973 26.5441C220.845 26.9281 220.781 27.3707 220.781 27.8721C220.781 28.3734 220.845 28.8214 220.973 29.2161C221.112 29.6001 221.298 29.9254 221.533 30.1921C221.768 30.4481 222.04 30.6454 222.349 30.784C222.669 30.9227 223.005 30.9921 223.357 30.9921Z" fill="#373737"/>
</svg>
