<svg width="802" height="390" viewBox="0 0 802 390" fill="none" xmlns="http://www.w3.org/2000/svg">
  <circle cx="38.5" cy="70.5" r="17.5" fill="#E40321" fill-opacity="0.1"/>
  <circle cx="38.5" cy="70.5" r="7.5" fill="#E40321"/>
  <circle cx="55.5" cy="223.5" r="17.5" fill="#E40321" fill-opacity="0.1"/>
  <circle cx="55.5" cy="223.5" r="7.5" fill="#E40321"/>
  <circle cx="769.5" cy="274.5" r="17.5" fill="#E40321" fill-opacity="0.1"/>
  <circle cx="769.5" cy="274.5" r="7.5" fill="#E40321"/>
  <circle cx="744.5" cy="110.5" r="17.5" fill="#E40321" fill-opacity="0.1"/>
  <circle cx="744.5" cy="110.5" r="7.5" fill="#E40321"/>
  <path d="M37.4439 71.0007C13.8071 172.016 -12.5585 156.533 55.5 224C82.598 250.863 1.79312 312.839 1.21738 358.204C1.04082 372.117 11.0389 385.7 24.782 387.873C68.9941 394.864 192.408 374.032 336.664 354.813C366.24 350.872 396.365 353.354 426.188 354.297C535 357.737 745.363 320.296 769 274C792.49 221.303 767.141 186.572 745.346 111.501C710 56.0007 736 -6.50023 801 2.0007" stroke="#E40321" stroke-linecap="round" stroke-linejoin="round" stroke-dasharray="10 10"/>
</svg>
