<svg width="28" height="28" viewBox="0 0 28 28" fill="none" xmlns="http://www.w3.org/2000/svg">
  <g clip-path="url(#clip0_164_534)">
    <path d="M13.6667 25.3333C7.22317 25.3333 2 20.1102 2 13.6667C2 7.22317 7.22317 2 13.6667 2C20.1102 2 25.3333 7.22317 25.3333 13.6667C25.3333 20.1102 20.1102 25.3333 13.6667 25.3333ZM12.059 9.48417C11.9888 9.43732 11.9072 9.4104 11.8229 9.40626C11.7386 9.40212 11.6547 9.42093 11.5803 9.46067C11.5058 9.50042 11.4435 9.55962 11.4 9.63196C11.3565 9.70431 11.3335 9.78709 11.3333 9.8715V17.4618C11.3335 17.5462 11.3565 17.629 11.4 17.7014C11.4435 17.7737 11.5058 17.8329 11.5803 17.8727C11.6547 17.9124 11.7386 17.9312 11.8229 17.9271C11.9072 17.9229 11.9888 17.896 12.059 17.8492L17.7512 14.0552C17.8152 14.0126 17.8677 13.9548 17.904 13.887C17.9403 13.8193 17.9593 13.7436 17.9593 13.6667C17.9593 13.5898 17.9403 13.5141 17.904 13.4463C17.8677 13.3785 17.8152 13.3208 17.7512 13.2782L12.0578 9.48417H12.059Z" fill="#E40321"/>
  </g>
  <defs>
    <clipPath id="clip0_164_534">
      <rect width="28" height="28" fill="white"/>
    </clipPath>
  </defs>
</svg>
